<svg id="svg" xmlns="http://www.w3.org/2000/svg" xmlns:xlink="http://www.w3.org/1999/xlink" width="400" height="209" viewBox="0, 0, 400,209"><g id="svgg"><path id="path0" d="M122.007 59.297 C 114.877 60.284,111.294 63.611,109.531 70.883 C 109.015 73.013,109.133 120.531,109.659 122.426 C 111.553 129.248,116.795 132.358,126.399 132.358 C 138.860 132.358,143.160 127.820,143.386 114.428 L 143.486 108.521 138.654 108.521 L 133.821 108.521 133.819 113.278 C 133.817 118.329,133.660 119.419,132.749 120.749 C 130.686 123.759,123.509 124.139,120.737 121.385 C 118.987 119.646,118.945 119.336,119.018 108.730 L 119.080 99.843 131.273 99.789 L 143.466 99.735 143.384 85.362 C 143.305 71.454,143.288 70.937,142.857 69.426 C 141.365 64.190,138.323 61.180,133.089 59.761 C 131.669 59.376,123.815 59.047,122.007 59.297 M169.681 59.378 C 167.708 59.800,166.880 60.078,165.499 60.781 C 163.760 61.667,162.448 62.544,161.349 63.556 C 160.262 64.558,160.286 64.587,160.167 62.101 L 160.063 59.906 155.254 59.906 L 150.444 59.906 150.392 105.123 L 150.339 150.340 155.253 150.340 L 160.167 150.340 160.167 138.979 C 160.167 132.730,160.223 127.562,160.291 127.494 C 160.359 127.426,161.041 127.879,161.807 128.500 C 167.476 133.097,176.065 133.613,181.040 129.655 C 181.999 128.891,184.002 126.244,184.005 125.734 C 184.006 125.640,184.133 125.320,184.288 125.024 C 185.381 122.929,185.363 123.408,185.363 95.661 C 185.363 66.846,185.464 68.837,183.837 65.457 C 181.599 60.806,175.415 58.150,169.681 59.378 M204.600 59.298 C 194.920 60.625,191.741 65.470,191.741 78.898 L 191.741 84.893 196.533 84.893 L 201.326 84.893 201.395 78.777 L 201.465 72.661 202.050 71.467 C 203.280 68.961,205.819 67.927,209.928 68.260 C 212.824 68.495,214.229 69.341,215.420 71.569 C 215.937 72.538,216.300 86.345,215.820 86.825 C 215.635 87.010,212.810 88.014,206.900 89.994 C 205.635 90.418,204.456 90.843,204.280 90.938 C 204.103 91.034,203.652 91.180,203.276 91.263 C 200.478 91.877,196.342 94.199,194.762 96.043 C 192.202 99.029,191.756 101.521,191.747 112.912 C 191.738 124.126,192.164 126.411,194.793 129.221 C 197.517 132.134,204.529 133.294,208.782 131.535 C 209.012 131.440,209.624 131.189,210.141 130.978 C 211.556 130.401,213.037 129.478,214.359 128.350 C 215.952 126.992,215.971 127.003,216.041 129.378 L 216.100 131.417 221.014 131.417 L 225.928 131.417 225.991 103.398 C 226.056 74.728,226.008 72.546,225.250 69.420 C 224.016 64.335,220.653 61.052,215.264 59.674 C 214.050 59.363,206.153 59.085,204.600 59.298 M252.169 59.371 C 249.106 59.945,245.540 61.840,243.214 64.131 C 242.695 64.642,242.551 64.174,242.551 61.985 L 242.551 59.801 237.637 59.801 L 232.723 59.801 232.723 95.661 L 232.723 131.521 237.637 131.521 L 242.551 131.521 242.551 101.848 L 242.551 72.174 243.649 71.485 C 249.709 67.682,254.543 67.494,256.424 70.988 L 256.874 71.824 256.931 101.673 L 256.988 131.521 261.897 131.521 L 266.806 131.521 266.809 101.986 C 266.811 85.742,266.882 72.351,266.966 72.229 C 267.051 72.106,267.543 71.726,268.061 71.385 C 272.754 68.288,277.855 67.636,279.917 69.868 C 281.207 71.265,281.122 69.071,281.152 101.725 L 281.179 131.417 286.120 131.473 L 291.061 131.529 291.061 100.631 C 291.061 68.235,291.066 68.442,290.169 65.913 C 287.296 57.811,276.052 56.788,267.090 63.813 C 265.567 65.007,265.514 65.016,265.092 64.140 C 263.367 60.559,257.463 58.380,252.169 59.371 M130.304 68.956 C 133.319 70.300,133.472 70.883,133.568 81.390 L 133.648 90.120 126.312 90.120 L 118.975 90.120 118.975 81.780 C 118.975 71.436,119.186 70.531,121.908 69.171 C 123.797 68.227,128.405 68.109,130.304 68.956 M172.178 68.928 C 173.453 69.409,174.135 69.989,174.809 71.164 L 175.427 72.243 175.429 95.690 L 175.431 119.137 174.847 120.254 C 172.915 123.954,166.342 123.830,161.265 119.999 L 160.167 119.171 160.167 95.767 L 160.167 72.363 160.638 71.919 C 163.398 69.314,169.211 67.808,172.178 68.928 M215.996 107.765 L 215.996 119.555 215.421 119.941 C 210.355 123.345,204.920 123.896,202.758 121.224 C 201.744 119.972,201.575 118.703,201.571 112.324 C 201.565 101.844,201.993 100.992,208.468 98.576 C 209.906 98.040,211.976 97.241,213.068 96.802 C 214.161 96.363,215.267 95.997,215.525 95.989 L 215.996 95.975 215.996 107.765 " stroke="none" fill="#49494e" fill-rule="evenodd"></path><path id="path1" d="M0.000 104.548 L 0.000 209.096 200.000 209.096 L 400.000 209.096 400.000 104.548 L 400.000 0.000 200.000 0.000 L 0.000 0.000 0.000 104.548 M132.074 59.294 C 137.901 60.459,141.499 63.716,143.072 69.247 C 143.490 70.719,143.510 71.347,143.587 85.362 L 143.667 99.944 131.478 99.998 L 119.289 100.052 119.289 109.252 C 119.289 119.301,119.292 119.328,120.560 120.998 C 122.555 123.627,130.144 123.581,132.332 120.927 C 133.406 119.623,133.612 118.359,133.612 113.055 L 133.612 108.312 138.651 108.312 L 143.690 108.312 143.589 114.532 C 143.502 119.900,143.432 120.939,143.080 122.112 C 140.837 129.595,136.027 132.570,126.189 132.561 C 116.502 132.551,111.321 129.432,109.461 122.487 L 108.940 120.544 108.939 96.592 C 108.939 73.414,108.952 72.579,109.357 70.724 C 110.799 64.119,114.142 60.683,120.477 59.296 C 122.433 58.868,129.938 58.866,132.074 59.294 M176.342 59.285 C 180.992 60.443,183.721 63.239,185.214 68.374 C 185.633 69.815,185.865 118.993,185.465 121.584 C 183.783 132.484,171.224 136.334,161.891 128.812 C 161.172 128.232,160.538 127.757,160.482 127.757 C 160.426 127.757,160.356 132.862,160.326 139.101 L 160.272 150.444 155.567 150.503 C 152.980 150.536,150.651 150.511,150.392 150.447 L 149.922 150.332 149.922 105.197 C 149.922 67.155,149.967 60.024,150.209 59.823 C 150.411 59.656,151.954 59.601,155.384 59.641 L 160.272 59.697 160.376 61.829 L 160.481 63.961 161.588 63.041 C 165.781 59.555,171.540 58.089,176.342 59.285 M214.428 59.280 C 220.096 60.349,223.771 63.594,225.441 69.005 L 225.924 70.570 225.982 101.150 L 226.041 131.730 220.914 131.730 L 215.787 131.730 215.787 129.744 C 215.787 127.516,215.765 127.492,214.621 128.437 C 206.393 135.236,194.933 133.600,192.289 125.248 C 191.133 121.597,191.193 103.465,192.373 99.948 C 193.852 95.539,196.620 93.243,203.079 91.066 C 204.606 90.551,207.784 89.460,210.141 88.641 C 212.499 87.821,214.636 87.103,214.892 87.044 C 215.807 86.834,215.821 86.713,215.743 79.521 C 215.664 72.283,215.647 72.149,214.616 70.651 C 212.693 67.855,205.610 67.599,203.122 70.235 C 201.819 71.616,201.708 72.256,201.613 78.986 L 201.526 85.102 196.529 85.102 L 191.532 85.102 191.532 78.881 C 191.532 66.713,193.668 62.329,200.770 59.918 C 203.669 58.934,210.818 58.600,214.428 59.280 M258.726 59.298 C 261.451 60.003,263.881 61.692,265.056 63.697 C 265.638 64.691,265.786 64.770,266.177 64.299 C 266.693 63.677,269.300 61.872,270.806 61.094 C 279.275 56.717,287.701 58.850,290.482 66.074 L 291.166 67.852 291.223 99.791 L 291.281 131.730 286.175 131.730 C 281.689 131.730,281.054 131.690,280.941 131.396 C 280.870 131.212,280.815 117.916,280.817 101.849 C 280.819 85.782,280.757 72.314,280.678 71.920 C 279.879 67.926,274.280 67.705,268.427 71.438 L 267.015 72.339 267.015 102.034 L 267.015 131.730 261.892 131.730 C 259.075 131.730,256.747 131.707,256.720 131.678 C 256.693 131.649,256.622 118.076,256.563 101.516 L 256.456 71.406 255.891 70.538 C 254.454 68.328,250.497 68.183,246.435 70.192 C 244.249 71.274,243.191 71.933,242.964 72.356 C 242.834 72.599,242.760 83.429,242.760 102.234 L 242.760 131.730 237.637 131.730 L 232.513 131.730 232.566 95.714 L 232.619 59.697 237.689 59.641 L 242.760 59.585 242.760 61.784 C 242.760 64.256,242.758 64.254,243.910 63.236 C 247.952 59.665,253.968 58.066,258.726 59.298 M95.973 73.131 L 95.972 79.770 92.889 82.685 C 91.194 84.288,88.113 87.213,86.043 89.185 C 83.973 91.157,81.597 93.410,80.763 94.192 C 78.869 95.968,78.813 95.695,81.600 98.264 C 82.893 99.456,84.711 101.146,85.638 102.019 C 86.565 102.892,87.882 104.125,88.565 104.759 C 89.248 105.393,91.194 107.217,92.891 108.814 L 95.975 111.718 95.975 118.378 C 95.975 122.042,95.904 125.037,95.818 125.034 C 95.670 125.028,94.911 124.334,91.163 120.779 C 90.299 119.960,88.841 118.590,87.922 117.736 C 87.004 116.882,85.450 115.424,84.469 114.495 C 83.488 113.567,81.327 111.537,79.666 109.984 C 75.415 106.009,73.318 104.038,71.566 102.369 L 70.047 100.923 70.047 95.979 L 70.047 91.035 71.354 89.805 C 72.073 89.129,74.590 86.739,76.947 84.494 C 79.305 82.250,81.935 79.751,82.792 78.942 C 83.649 78.132,85.342 76.519,86.555 75.357 C 90.321 71.750,95.868 66.505,95.923 66.498 C 95.951 66.495,95.974 69.480,95.973 73.131 M305.526 67.844 C 306.138 68.415,308.425 70.579,310.608 72.653 C 312.791 74.727,315.379 77.184,316.358 78.113 C 317.338 79.042,320.115 81.683,322.530 83.983 C 324.945 86.283,327.603 88.807,328.437 89.592 L 329.953 91.020 329.953 95.971 L 329.953 100.923 328.434 102.369 C 327.599 103.165,326.070 104.608,325.036 105.576 C 324.003 106.544,322.499 107.959,321.694 108.720 C 320.092 110.234,313.917 116.029,311.772 118.030 C 311.031 118.723,309.525 120.142,308.427 121.185 C 305.474 123.989,304.311 125.039,304.160 125.039 C 304.086 125.039,304.025 122.044,304.025 118.384 L 304.025 111.729 305.227 110.591 C 305.889 109.965,308.545 107.479,311.129 105.066 C 318.062 98.596,318.673 98.027,319.760 97.028 C 321.081 95.814,321.164 95.991,317.779 92.810 C 316.144 91.273,313.721 88.973,312.395 87.699 C 311.069 86.424,308.645 84.119,307.008 82.576 L 304.032 79.770 304.029 73.218 C 304.027 69.285,304.103 66.695,304.219 66.736 C 304.325 66.775,304.913 67.273,305.526 67.844 M123.768 68.780 C 121.851 69.133,120.692 69.988,119.783 71.720 C 119.291 72.658,119.289 72.687,119.221 81.286 L 119.152 89.911 126.278 89.911 L 133.403 89.911 133.401 82.331 C 133.399 71.589,133.135 70.504,130.200 69.206 C 129.067 68.705,125.469 68.467,123.768 68.780 M166.440 69.185 C 164.841 69.618,163.375 70.327,161.636 71.507 L 160.376 72.363 160.376 95.758 L 160.376 119.152 161.820 120.112 C 167.409 123.828,173.621 123.561,174.883 119.551 C 175.414 117.861,175.305 72.375,174.767 71.393 C 173.479 69.044,170.189 68.171,166.440 69.185 M211.396 97.684 C 209.268 98.491,207.128 99.307,206.639 99.497 C 204.284 100.414,202.666 102.054,202.223 103.974 C 201.892 105.407,201.900 118.743,202.232 119.852 C 203.346 123.568,210.478 123.549,215.212 119.817 L 215.787 119.363 215.787 107.774 C 215.787 98.633,215.732 96.187,215.525 96.200 C 215.382 96.209,213.523 96.877,211.396 97.684 " stroke="none" fill="#fbfbfb" fill-rule="evenodd"></path><path id="path2" d="M92.316 69.875 C 90.361 71.728,87.769 74.195,86.555 75.357 C 85.342 76.519,83.649 78.132,82.792 78.942 C 81.935 79.751,79.305 82.250,76.947 84.494 C 74.590 86.739,72.073 89.129,71.354 89.805 L 70.047 91.035 70.047 95.979 L 70.047 100.923 71.566 102.369 C 73.318 104.038,75.415 106.009,79.666 109.984 C 81.327 111.537,83.488 113.567,84.469 114.495 C 85.450 115.424,87.004 116.882,87.922 117.736 C 88.841 118.590,90.299 119.960,91.163 120.779 C 94.911 124.334,95.670 125.028,95.818 125.034 C 95.904 125.037,95.975 122.042,95.975 118.378 L 95.975 111.718 92.891 108.814 C 91.194 107.217,89.248 105.393,88.565 104.759 C 87.882 104.125,86.565 102.892,85.638 102.019 C 84.711 101.146,82.893 99.456,81.600 98.264 C 78.813 95.695,78.869 95.968,80.763 94.192 C 81.597 93.410,83.973 91.157,86.043 89.185 C 88.113 87.213,91.194 84.288,92.889 82.685 L 95.972 79.770 95.973 73.131 C 95.974 69.480,95.951 66.495,95.923 66.498 C 95.894 66.502,94.271 68.021,92.316 69.875 M304.029 73.218 L 304.032 79.770 307.008 82.576 C 308.645 84.119,311.069 86.424,312.395 87.699 C 313.721 88.973,316.144 91.273,317.779 92.810 C 321.164 95.991,321.081 95.814,319.760 97.028 C 318.673 98.027,318.062 98.596,311.129 105.066 C 308.545 107.479,305.889 109.965,305.227 110.591 L 304.025 111.729 304.025 118.384 C 304.025 122.044,304.086 125.039,304.160 125.039 C 304.311 125.039,305.474 123.989,308.427 121.185 C 309.525 120.142,311.031 118.723,311.772 118.030 C 313.917 116.029,320.092 110.234,321.694 108.720 C 322.499 107.959,324.003 106.544,325.036 105.576 C 326.070 104.608,327.599 103.165,328.434 102.369 L 329.953 100.923 329.953 95.971 L 329.953 91.020 328.437 89.592 C 327.603 88.807,324.945 86.283,322.530 83.983 C 320.115 81.683,317.338 79.042,316.358 78.113 C 315.379 77.184,312.791 74.727,310.608 72.653 C 305.262 67.575,304.445 66.818,304.219 66.736 C 304.103 66.695,304.027 69.285,304.029 73.218 " stroke="none" fill="#3dc4d4" fill-rule="evenodd"></path><path id="path3" d="M124.778 59.120 C 125.612 59.160,126.976 59.160,127.810 59.120 C 128.643 59.081,127.961 59.048,126.294 59.048 C 124.626 59.048,123.944 59.081,124.778 59.120 M171.929 59.117 C 172.360 59.162,173.066 59.162,173.497 59.117 C 173.928 59.072,173.576 59.035,172.713 59.035 C 171.850 59.035,171.498 59.072,171.929 59.117 M207.257 59.120 C 208.028 59.160,209.345 59.160,210.184 59.120 C 211.023 59.081,210.392 59.048,208.782 59.047 C 207.172 59.047,206.486 59.080,207.257 59.120 M254.313 59.117 C 254.744 59.162,255.450 59.162,255.881 59.117 C 256.312 59.072,255.959 59.035,255.097 59.035 C 254.234 59.035,253.881 59.072,254.313 59.117 M278.568 59.117 C 278.999 59.162,279.705 59.162,280.136 59.117 C 280.567 59.072,280.214 59.035,279.352 59.035 C 278.489 59.035,278.136 59.072,278.568 59.117 M150.227 60.063 C 150.173 60.206,150.152 80.601,150.182 105.384 L 150.235 150.444 150.340 105.123 C 150.397 80.196,150.418 59.801,150.385 59.801 C 150.353 59.801,150.282 59.919,150.227 60.063 M160.166 61.850 L 160.269 63.879 160.331 62.016 C 160.366 60.991,160.319 60.078,160.228 59.987 C 160.137 59.895,160.109 60.734,160.166 61.850 M242.586 61.932 C 242.567 63.162,242.622 64.212,242.708 64.265 C 242.794 64.319,242.839 63.642,242.808 62.762 C 242.708 59.952,242.622 59.630,242.586 61.932 M232.617 95.661 C 232.617 115.327,232.641 123.341,232.671 113.470 C 232.701 103.600,232.701 87.510,232.671 77.715 C 232.641 67.920,232.617 75.996,232.617 95.661 M181.704 62.415 C 182.094 62.818,182.460 63.147,182.518 63.147 C 182.576 63.147,182.303 62.818,181.913 62.415 C 181.523 62.013,181.157 61.683,181.099 61.683 C 181.042 61.683,181.314 62.013,181.704 62.415 M139.249 62.990 C 140.115 63.913,140.303 64.079,140.303 63.922 C 140.303 63.889,139.856 63.442,139.310 62.929 L 138.317 61.997 139.249 62.990 M195.702 63.095 L 194.982 63.879 195.766 63.158 C 196.496 62.487,196.646 62.311,196.486 62.311 C 196.451 62.311,196.099 62.663,195.702 63.095 M160.904 63.769 C 160.698 63.997,160.434 64.123,160.316 64.051 C 160.189 63.972,160.167 64.023,160.262 64.176 C 160.397 64.395,161.422 63.731,161.422 63.424 C 161.422 63.269,161.257 63.379,160.904 63.769 M207.893 68.318 C 208.325 68.363,209.030 68.363,209.462 68.318 C 209.893 68.272,209.540 68.235,208.677 68.235 C 207.815 68.235,207.462 68.272,207.893 68.318 M213.487 69.276 C 213.487 69.312,213.792 69.618,214.166 69.956 L 214.846 70.570 214.232 69.890 C 213.659 69.257,213.487 69.115,213.487 69.276 M254.888 69.276 C 254.888 69.312,255.193 69.618,255.567 69.956 L 256.247 70.570 255.633 69.890 C 255.060 69.257,254.888 69.115,254.888 69.276 M279.143 69.276 C 279.143 69.312,279.449 69.618,279.822 69.956 L 280.502 70.570 279.888 69.890 C 279.315 69.257,279.143 69.115,279.143 69.276 M185.311 70.779 C 185.314 71.239,185.357 71.402,185.407 71.142 C 185.457 70.882,185.455 70.506,185.402 70.306 C 185.350 70.106,185.309 70.319,185.311 70.779 M143.279 72.138 C 143.279 72.541,143.322 72.705,143.375 72.504 C 143.427 72.303,143.427 71.973,143.375 71.772 C 143.322 71.571,143.279 71.735,143.279 72.138 M175.141 72.243 C 175.313 73.011,175.432 73.178,175.428 72.643 C 175.426 72.423,175.329 72.101,175.213 71.929 C 175.058 71.700,175.038 71.784,175.141 72.243 M242.690 72.068 C 242.614 72.145,242.551 85.552,242.551 101.861 L 242.551 131.514 237.689 131.575 L 232.828 131.637 237.742 131.631 L 242.656 131.626 242.760 101.777 C 242.818 85.361,242.857 71.929,242.847 71.929 C 242.838 71.929,242.767 71.992,242.690 72.068 M185.569 95.661 C 185.569 108.657,185.594 113.942,185.625 107.407 C 185.655 100.872,185.655 90.239,185.625 83.779 C 185.594 77.319,185.569 82.666,185.569 95.661 M160.268 95.766 C 160.268 108.704,160.293 113.996,160.324 107.527 C 160.355 101.059,160.355 90.473,160.324 84.004 C 160.293 77.535,160.268 82.828,160.268 95.766 M266.858 101.882 L 266.806 131.521 261.893 131.521 L 256.980 131.521 256.926 102.300 L 256.872 73.079 256.873 102.352 L 256.874 131.626 261.845 131.682 C 265.709 131.725,266.839 131.679,266.917 131.473 C 266.973 131.327,266.994 117.940,266.964 101.725 L 266.909 72.243 266.858 101.882 M225.876 73.288 C 225.878 73.748,225.921 73.912,225.971 73.652 C 226.021 73.391,226.019 73.015,225.967 72.815 C 225.915 72.615,225.874 72.828,225.876 73.288 M119.024 73.811 C 119.024 74.213,119.067 74.378,119.120 74.177 C 119.172 73.975,119.172 73.646,119.120 73.445 C 119.067 73.244,119.024 73.408,119.024 73.811 M281.082 74.020 C 281.082 74.537,281.122 74.749,281.172 74.490 C 281.222 74.232,281.222 73.808,281.172 73.549 C 281.122 73.291,281.082 73.502,281.082 74.020 M143.538 86.670 C 143.538 93.915,143.564 96.849,143.596 93.189 C 143.628 89.530,143.628 83.602,143.596 80.016 C 143.564 76.431,143.538 79.425,143.538 86.670 M109.040 96.707 C 109.040 109.357,109.065 114.501,109.096 108.139 C 109.126 101.776,109.126 91.426,109.096 85.138 C 109.065 78.851,109.040 84.056,109.040 96.707 M133.498 82.175 C 133.498 86.602,133.526 88.413,133.560 86.200 C 133.593 83.986,133.593 80.363,133.560 78.150 C 133.526 75.936,133.498 77.747,133.498 82.175 M201.450 79.665 C 201.450 82.483,201.479 83.636,201.515 82.227 C 201.551 80.818,201.551 78.513,201.515 77.104 C 201.479 75.695,201.450 76.848,201.450 79.665 M281.077 77.052 C 281.080 77.512,281.122 77.675,281.172 77.415 C 281.222 77.155,281.221 76.779,281.168 76.579 C 281.116 76.379,281.075 76.592,281.077 77.052 M281.087 79.038 C 281.087 79.671,281.126 79.929,281.174 79.613 C 281.222 79.297,281.222 78.779,281.174 78.463 C 281.126 78.147,281.087 78.406,281.087 79.038 M281.091 83.638 C 281.091 84.386,281.129 84.692,281.176 84.318 C 281.222 83.944,281.222 83.332,281.176 82.959 C 281.129 82.585,281.091 82.891,281.091 83.638 M194.093 85.049 C 195.444 85.085,197.656 85.085,199.007 85.049 C 200.358 85.013,199.252 84.983,196.550 84.983 C 193.847 84.983,192.742 85.013,194.093 85.049 M281.084 86.670 C 281.086 87.245,281.127 87.456,281.175 87.138 C 281.223 86.820,281.221 86.349,281.172 86.092 C 281.122 85.835,281.083 86.095,281.084 86.670 M281.082 88.866 C 281.082 89.383,281.122 89.595,281.172 89.336 C 281.222 89.077,281.222 88.654,281.172 88.395 C 281.122 88.136,281.082 88.348,281.082 88.866 M281.073 90.748 C 281.073 91.150,281.116 91.315,281.169 91.113 C 281.221 90.912,281.221 90.583,281.169 90.382 C 281.116 90.180,281.073 90.345,281.073 90.748 M281.077 92.734 C 281.080 93.194,281.122 93.358,281.172 93.097 C 281.222 92.837,281.221 92.461,281.168 92.261 C 281.116 92.061,281.075 92.274,281.077 92.734 M281.073 96.184 C 281.073 96.587,281.116 96.751,281.169 96.550 C 281.221 96.349,281.221 96.019,281.169 95.818 C 281.116 95.617,281.073 95.781,281.073 96.184 M281.087 99.320 C 281.087 99.953,281.126 100.212,281.174 99.895 C 281.222 99.579,281.222 99.062,281.174 98.745 C 281.126 98.429,281.087 98.688,281.087 99.320 M281.077 102.143 C 281.080 102.603,281.122 102.767,281.172 102.507 C 281.222 102.247,281.221 101.870,281.168 101.670 C 281.116 101.470,281.075 101.683,281.077 102.143 M281.103 105.280 C 281.103 106.545,281.138 107.035,281.179 106.370 C 281.221 105.704,281.221 104.669,281.178 104.070 C 281.136 103.470,281.102 104.015,281.103 105.280 M201.661 112.180 C 201.661 115.630,201.689 117.071,201.725 115.381 C 201.760 113.692,201.760 110.869,201.725 109.109 C 201.690 107.348,201.661 108.730,201.661 112.180 M133.708 108.574 C 133.651 108.722,133.631 111.005,133.664 113.648 L 133.725 118.453 133.773 113.487 L 133.821 108.521 138.627 108.521 L 143.432 108.521 143.494 113.330 L 143.556 118.139 143.550 113.278 L 143.544 108.416 138.678 108.360 C 134.856 108.316,133.789 108.362,133.708 108.574 M281.087 112.703 C 281.087 113.335,281.126 113.594,281.174 113.278 C 281.222 112.961,281.222 112.444,281.174 112.128 C 281.126 111.811,281.087 112.070,281.087 112.703 M281.073 116.257 C 281.073 116.660,281.116 116.824,281.169 116.623 C 281.221 116.422,281.221 116.093,281.169 115.891 C 281.116 115.690,281.073 115.855,281.073 116.257 M281.084 118.244 C 281.086 118.819,281.127 119.029,281.175 118.711 C 281.223 118.393,281.221 117.923,281.172 117.666 C 281.122 117.409,281.083 117.669,281.084 118.244 M281.073 120.021 C 281.073 120.423,281.116 120.588,281.169 120.387 C 281.221 120.186,281.221 119.856,281.169 119.655 C 281.116 119.454,281.073 119.618,281.073 120.021 M185.307 120.648 C 185.307 121.051,185.350 121.215,185.403 121.014 C 185.455 120.813,185.455 120.484,185.403 120.282 C 185.350 120.081,185.307 120.246,185.307 120.648 M281.096 122.844 C 281.097 123.764,281.134 124.114,281.178 123.622 C 281.222 123.130,281.221 122.378,281.177 121.950 C 281.132 121.521,281.095 121.924,281.096 122.844 M109.386 121.903 C 109.386 122.075,109.467 122.405,109.566 122.635 C 109.679 122.898,109.746 122.937,109.746 122.739 C 109.746 122.567,109.665 122.237,109.566 122.007 C 109.453 121.744,109.386 121.705,109.386 121.903 M125.204 123.103 C 125.927 123.144,127.057 123.144,127.713 123.103 C 128.370 123.061,127.778 123.028,126.398 123.028 C 125.018 123.028,124.481 123.062,125.204 123.103 M160.263 127.601 C 160.208 127.744,160.188 132.896,160.219 139.049 L 160.276 150.235 160.326 138.879 C 160.364 130.360,160.437 127.561,160.618 127.673 C 160.767 127.765,160.802 127.730,160.710 127.581 C 160.518 127.269,160.388 127.275,160.263 127.601 M139.456 128.332 L 138.735 129.117 139.519 128.396 C 140.249 127.725,140.399 127.548,140.240 127.548 C 140.205 127.548,139.852 127.901,139.456 128.332 M281.082 129.221 C 281.082 129.739,281.122 129.950,281.172 129.692 C 281.222 129.433,281.222 129.009,281.172 128.751 C 281.122 128.492,281.082 128.704,281.082 129.221 M194.250 128.868 C 194.250 128.904,194.556 129.210,194.929 129.548 L 195.609 130.162 194.995 129.482 C 194.422 128.849,194.250 128.707,194.250 128.868 M215.996 131.573 C 215.996 131.660,218.201 131.730,220.897 131.730 C 223.593 131.730,225.842 131.660,225.896 131.573 C 225.949 131.487,223.743 131.417,220.994 131.417 C 218.245 131.417,215.996 131.487,215.996 131.573 M281.206 131.577 C 281.295 131.666,283.572 131.713,286.266 131.682 L 291.166 131.625 286.105 131.521 C 283.322 131.464,281.117 131.489,281.206 131.577 " stroke="none" fill="#9c949c" fill-rule="evenodd"></path><path id="path4" d="M122.060 59.113 C 122.318 59.162,122.742 59.162,123.001 59.113 C 123.259 59.063,123.048 59.022,122.530 59.022 C 122.013 59.022,121.801 59.063,122.060 59.113 M129.239 59.042 C 129.286 59.084,129.937 59.171,130.685 59.234 C 131.541 59.307,131.812 59.288,131.417 59.182 C 130.778 59.011,129.080 58.902,129.239 59.042 M170.256 59.109 C 170.457 59.162,170.787 59.162,170.988 59.109 C 171.189 59.057,171.025 59.013,170.622 59.013 C 170.220 59.013,170.055 59.057,170.256 59.109 M174.194 59.043 C 174.242 59.085,174.752 59.175,175.327 59.241 C 176.032 59.323,176.202 59.304,175.849 59.184 C 175.327 59.007,174.029 58.896,174.194 59.043 M203.764 59.182 C 203.368 59.288,203.639 59.307,204.496 59.234 C 205.243 59.171,205.894 59.084,205.942 59.042 C 206.100 58.902,204.403 59.011,203.764 59.182 M211.971 59.113 C 212.229 59.162,212.653 59.162,212.912 59.113 C 213.170 59.063,212.959 59.022,212.441 59.022 C 211.924 59.022,211.712 59.063,211.971 59.113 M251.960 59.184 C 251.608 59.304,251.778 59.323,252.483 59.241 C 253.058 59.175,253.568 59.085,253.616 59.043 C 253.780 58.896,252.483 59.007,251.960 59.184 M256.578 59.043 C 256.626 59.085,257.135 59.175,257.710 59.241 C 258.415 59.323,258.586 59.304,258.233 59.184 C 257.711 59.007,256.413 58.896,256.578 59.043 M276.895 59.109 C 277.096 59.162,277.426 59.162,277.627 59.109 C 277.828 59.057,277.663 59.013,277.261 59.013 C 276.858 59.013,276.694 59.057,276.895 59.109 M280.833 59.043 C 280.881 59.085,281.390 59.175,281.965 59.241 C 282.671 59.323,282.841 59.304,282.488 59.184 C 281.966 59.007,280.668 58.896,280.833 59.043 M133.211 59.667 C 133.259 59.709,133.581 59.806,133.926 59.883 C 134.384 59.985,134.468 59.966,134.239 59.811 C 133.957 59.620,133.002 59.486,133.211 59.667 M150.173 59.843 C 149.979 60.037,149.933 70.354,149.973 105.269 L 150.025 150.444 150.130 105.175 L 150.235 59.906 155.286 59.906 C 158.064 59.906,160.293 59.835,160.240 59.749 C 160.067 59.471,150.455 59.561,150.173 59.843 M232.651 59.749 C 232.597 59.835,234.074 59.882,235.932 59.852 C 242.245 59.752,242.877 59.678,237.806 59.635 C 235.024 59.612,232.704 59.663,232.651 59.749 M134.658 60.080 C 134.658 60.134,134.961 60.284,135.332 60.414 C 135.704 60.543,135.915 60.563,135.803 60.458 C 135.565 60.235,134.658 59.936,134.658 60.080 M218.714 60.698 C 218.714 60.745,219.202 61.087,219.798 61.458 C 220.394 61.828,220.775 62.004,220.646 61.848 C 220.399 61.551,218.714 60.547,218.714 60.698 M114.668 61.658 C 114.220 61.989,113.476 62.669,113.016 63.169 C 112.326 63.918,112.400 63.876,113.434 62.930 C 114.124 62.299,114.924 61.624,115.212 61.430 C 115.499 61.236,115.678 61.073,115.609 61.067 C 115.540 61.061,115.117 61.327,114.668 61.658 M263.565 62.101 C 264.131 62.676,264.642 63.147,264.699 63.147 C 264.757 63.147,264.341 62.676,263.774 62.101 C 263.208 61.526,262.697 61.056,262.640 61.056 C 262.582 61.056,262.999 61.526,263.565 62.101 M138.840 62.376 C 138.840 62.412,139.145 62.718,139.519 63.055 L 140.199 63.670 139.585 62.990 C 139.012 62.357,138.840 62.214,138.840 62.376 M195.591 62.990 C 194.666 64.000,194.173 64.611,194.282 64.611 C 194.336 64.611,194.826 64.093,195.372 63.461 C 196.449 62.213,196.600 61.889,195.591 62.990 M222.153 63.356 C 223.525 64.901,223.666 65.033,223.157 64.297 C 222.918 63.952,222.365 63.340,221.927 62.938 C 221.291 62.353,221.336 62.437,222.153 63.356 M140.721 64.558 C 140.994 64.932,141.251 65.238,141.291 65.238 C 141.450 65.238,140.931 64.454,140.588 64.175 C 140.362 63.992,140.413 64.138,140.721 64.558 M290.679 67.120 C 290.689 67.663,291.018 68.555,291.026 68.061 C 291.029 67.831,290.951 67.454,290.852 67.224 C 290.742 66.968,290.675 66.928,290.679 67.120 M125.510 68.527 C 125.941 68.572,126.647 68.572,127.078 68.527 C 127.509 68.481,127.156 68.445,126.294 68.445 C 125.431 68.445,125.078 68.481,125.510 68.527 M210.159 68.450 C 210.206 68.491,210.669 68.581,211.187 68.650 C 211.815 68.733,211.989 68.712,211.709 68.589 C 211.310 68.412,209.977 68.292,210.159 68.450 M109.686 69.121 C 109.609 69.427,109.586 69.719,109.635 69.768 C 109.685 69.817,109.788 69.607,109.865 69.300 C 109.942 68.994,109.964 68.703,109.915 68.654 C 109.866 68.604,109.763 68.815,109.686 69.121 M123.628 68.728 C 123.829 68.780,124.158 68.780,124.360 68.728 C 124.561 68.675,124.396 68.632,123.994 68.632 C 123.591 68.632,123.427 68.675,123.628 68.728 M168.897 68.735 C 169.271 68.781,169.882 68.781,170.256 68.735 C 170.630 68.688,170.324 68.650,169.577 68.650 C 168.829 68.650,168.523 68.688,168.897 68.735 M251.385 68.733 C 251.702 68.781,252.219 68.781,252.535 68.733 C 252.852 68.685,252.593 68.646,251.960 68.646 C 251.328 68.646,251.069 68.685,251.385 68.733 M275.640 68.733 C 275.957 68.781,276.474 68.781,276.790 68.733 C 277.107 68.685,276.848 68.646,276.215 68.646 C 275.583 68.646,275.324 68.685,275.640 68.733 M212.250 68.859 C 212.582 69.114,213.905 69.805,213.905 69.723 C 213.905 69.583,212.589 68.794,212.354 68.793 C 212.249 68.793,212.202 68.823,212.250 68.859 M192.054 69.629 C 191.975 69.990,191.954 70.330,192.007 70.383 C 192.060 70.436,192.164 70.179,192.237 69.812 C 192.412 68.940,192.243 68.771,192.054 69.629 M278.324 69.065 C 278.372 69.100,278.693 69.293,279.038 69.495 L 279.665 69.863 279.172 69.432 C 278.900 69.195,278.579 69.002,278.457 69.002 C 278.336 69.002,278.276 69.030,278.324 69.065 M291.163 100.470 C 291.163 117.721,291.188 124.747,291.218 116.084 C 291.248 107.421,291.248 93.307,291.218 84.720 C 291.188 76.132,291.163 83.220,291.163 100.470 M161.784 71.205 C 161.355 71.496,161.004 71.780,161.004 71.835 C 161.004 71.890,161.380 71.686,161.840 71.381 C 162.570 70.898,162.817 70.674,162.620 70.674 C 162.590 70.674,162.213 70.913,161.784 71.205 M185.521 71.406 C 185.523 71.866,185.566 72.030,185.616 71.770 C 185.666 71.510,185.664 71.133,185.612 70.933 C 185.559 70.733,185.518 70.946,185.521 71.406 M109.071 71.948 C 108.998 72.311,108.950 72.903,108.964 73.262 C 108.980 73.651,109.063 73.413,109.171 72.675 C 109.363 71.356,109.292 70.841,109.071 71.948 M256.508 93.120 C 256.537 104.983,256.585 118.453,256.615 123.053 C 256.645 127.653,256.691 118.055,256.716 101.725 C 256.742 85.395,256.694 71.925,256.609 71.792 C 256.525 71.659,256.479 81.257,256.508 93.120 M280.744 72.243 C 280.814 72.703,280.906 73.118,280.948 73.166 C 281.106 73.346,280.988 72.226,280.806 71.824 C 280.674 71.533,280.655 71.660,280.744 72.243 M143.497 72.765 C 143.497 73.283,143.537 73.495,143.587 73.236 C 143.637 72.977,143.637 72.554,143.587 72.295 C 143.537 72.036,143.497 72.248,143.497 72.765 M191.625 78.620 C 191.625 82.243,191.653 83.725,191.688 81.913 C 191.723 80.102,191.723 77.138,191.688 75.327 C 191.653 73.515,191.625 74.997,191.625 78.620 M201.621 73.497 C 201.623 73.957,201.666 74.121,201.716 73.861 C 201.766 73.601,201.764 73.224,201.712 73.024 C 201.660 72.824,201.619 73.037,201.621 73.497 M133.242 73.602 C 133.242 74.004,133.285 74.169,133.338 73.968 C 133.391 73.766,133.391 73.437,133.338 73.236 C 133.285 73.035,133.242 73.199,133.242 73.602 M175.323 95.766 C 175.323 108.359,175.348 113.510,175.379 107.214 C 175.410 100.917,175.410 90.614,175.379 84.318 C 175.348 78.021,175.323 83.173,175.323 95.766 M280.917 102.352 C 280.917 118.338,280.942 124.846,280.972 116.816 C 281.003 108.785,281.003 95.707,280.972 87.752 C 280.942 79.797,280.917 86.367,280.917 102.352 M215.836 80.303 C 215.800 84.865,215.719 86.561,215.527 86.785 C 215.352 86.989,215.388 86.982,215.635 86.764 C 215.972 86.466,215.997 85.939,215.943 80.282 L 215.885 74.124 215.836 80.303 M119.076 82.175 L 119.080 90.016 126.242 90.020 L 133.403 90.024 126.296 89.965 L 119.190 89.906 119.131 82.120 L 119.072 74.334 119.076 82.175 M203.136 91.069 C 202.614 91.320,202.596 91.349,203.032 91.243 C 203.624 91.098,204.290 90.759,203.973 90.763 C 203.858 90.765,203.481 90.902,203.136 91.069 M201.255 91.696 C 200.732 91.948,200.714 91.977,201.150 91.870 C 201.742 91.725,202.408 91.386,202.091 91.391 C 201.976 91.392,201.600 91.530,201.255 91.696 M199.686 92.316 C 199.399 92.480,199.258 92.615,199.373 92.615 C 199.488 92.615,199.817 92.480,200.105 92.316 C 200.392 92.151,200.533 92.017,200.418 92.017 C 200.303 92.017,199.974 92.151,199.686 92.316 M215.572 96.113 C 216.000 96.325,215.854 119.177,215.421 119.691 C 215.055 120.125,215.055 120.125,215.527 119.726 L 215.999 119.326 215.945 107.720 C 215.902 98.516,215.836 96.103,215.625 96.060 C 215.478 96.031,215.455 96.054,215.572 96.113 M119.226 99.990 C 119.038 100.178,118.988 102.348,119.024 108.719 L 119.073 117.198 119.181 108.625 L 119.289 100.052 131.521 99.945 L 143.753 99.838 131.615 99.788 C 122.397 99.751,119.417 99.799,119.226 99.990 M202.117 103.615 C 202.045 103.802,201.994 104.112,202.004 104.304 C 202.014 104.495,202.105 104.375,202.207 104.036 C 202.404 103.376,202.334 103.049,202.117 103.615 M191.628 113.016 C 191.628 118.076,191.655 120.116,191.688 117.550 C 191.722 114.983,191.722 110.843,191.688 108.350 C 191.655 105.856,191.628 107.956,191.628 113.016 M201.871 111.866 C 201.871 115.604,201.899 117.133,201.934 115.264 C 201.968 113.395,201.968 110.337,201.934 108.468 C 201.899 106.600,201.871 108.129,201.871 111.866 M119.233 117.930 C 119.233 118.332,119.276 118.497,119.329 118.296 C 119.381 118.095,119.381 117.765,119.329 117.564 C 119.276 117.363,119.233 117.527,119.233 117.930 M143.488 118.766 C 143.488 119.169,143.531 119.334,143.584 119.132 C 143.636 118.931,143.636 118.602,143.584 118.400 C 143.531 118.199,143.488 118.364,143.488 118.766 M185.525 120.021 C 185.525 120.538,185.566 120.750,185.615 120.491 C 185.665 120.233,185.665 119.809,185.615 119.550 C 185.566 119.292,185.525 119.503,185.525 120.021 M108.987 120.230 C 108.987 120.633,109.030 120.797,109.083 120.596 C 109.136 120.395,109.136 120.065,109.083 119.864 C 109.030 119.663,108.987 119.827,108.987 120.230 M143.259 120.230 C 143.240 120.518,143.176 120.988,143.117 121.275 L 143.010 121.798 143.234 121.284 C 143.358 121.000,143.422 120.530,143.376 120.238 L 143.293 119.707 143.259 120.230 M120.211 120.822 C 120.324 121.033,120.581 121.339,120.781 121.502 C 121.007 121.685,120.957 121.539,120.649 121.119 C 120.100 120.368,119.894 120.229,120.211 120.822 M171.354 122.530 C 171.090 122.643,171.052 122.710,171.249 122.710 C 171.422 122.710,171.751 122.629,171.981 122.530 C 172.245 122.417,172.283 122.350,172.086 122.350 C 171.913 122.350,171.584 122.431,171.354 122.530 M204.600 122.530 C 204.830 122.629,205.159 122.710,205.332 122.710 C 205.530 122.710,205.491 122.643,205.227 122.530 C 204.997 122.431,204.668 122.350,204.496 122.350 C 204.298 122.350,204.337 122.417,204.600 122.530 M215.250 127.810 C 215.034 128.068,214.991 128.163,215.155 128.019 C 215.696 127.544,215.771 127.739,215.840 129.796 L 215.908 131.835 215.952 129.587 C 215.998 127.251,215.907 127.022,215.250 127.810 M213.800 128.934 C 213.424 129.254,213.347 129.381,213.608 129.251 C 213.992 129.061,214.711 128.372,214.505 128.392 C 214.463 128.396,214.145 128.640,213.800 128.934 M113.539 129.088 C 113.539 129.146,113.821 129.394,114.166 129.639 C 114.511 129.885,114.794 130.039,114.794 129.981 C 114.794 129.924,114.511 129.676,114.166 129.430 C 113.821 129.185,113.539 129.031,113.539 129.088 M138.108 129.561 C 137.732 129.881,137.655 130.008,137.916 129.878 C 138.299 129.688,139.018 129.000,138.813 129.020 C 138.770 129.024,138.453 129.267,138.108 129.561 M180.659 130.089 C 180.256 130.442,180.116 130.635,180.347 130.518 C 180.729 130.325,181.676 129.419,181.475 129.439 C 181.429 129.443,181.061 129.736,180.659 130.089 M166.022 131.224 C 166.022 131.365,167.108 131.759,167.212 131.656 C 167.259 131.608,167.011 131.469,166.660 131.347 C 166.309 131.225,166.022 131.169,166.022 131.224 M209.409 131.424 C 208.884 131.677,208.867 131.706,209.305 131.600 C 209.592 131.531,209.917 131.391,210.026 131.289 C 210.297 131.035,210.148 131.068,209.409 131.424 M119.394 131.930 C 119.566 132.047,119.888 132.143,120.108 132.145 C 120.643 132.150,120.476 132.030,119.707 131.858 C 119.249 131.755,119.165 131.775,119.394 131.930 M167.904 131.930 C 168.076 132.047,168.398 132.143,168.618 132.145 C 169.153 132.150,168.986 132.030,168.217 131.858 C 167.759 131.755,167.675 131.775,167.904 131.930 M176.686 131.939 C 176.255 132.077,176.237 132.110,176.581 132.124 C 176.811 132.134,177.141 132.051,177.313 131.939 C 177.679 131.703,177.425 131.703,176.686 131.939 M207.632 131.939 C 207.201 132.077,207.183 132.110,207.527 132.124 C 207.757 132.134,208.087 132.051,208.259 131.939 C 208.626 131.703,208.371 131.703,207.632 131.939 M124.245 132.513 C 125.245 132.551,126.939 132.552,128.008 132.513 C 129.078 132.475,128.259 132.444,126.189 132.444 C 124.119 132.444,123.244 132.475,124.245 132.513 M171.622 132.512 C 172.230 132.554,173.171 132.554,173.713 132.511 C 174.256 132.468,173.758 132.433,172.608 132.434 C 171.458 132.434,171.015 132.470,171.622 132.512 M202.568 132.512 C 203.176 132.554,204.117 132.554,204.659 132.511 C 205.202 132.468,204.705 132.433,203.555 132.434 C 202.405 132.434,201.961 132.470,202.568 132.512 M155.254 150.340 L 150.235 150.456 155.189 150.502 C 158.317 150.532,160.190 150.472,160.272 150.340 C 160.343 150.225,160.372 150.152,160.336 150.177 C 160.301 150.203,158.014 150.276,155.254 150.340 " stroke="none" fill="#9c9c9c" fill-rule="evenodd"></path></g></svg>